# xmcd
#
# Track frame offsets:
#	150
#	17002
#	47306
#	88322
#	115263
#	138519
#	142353
#	168764
#	190149
#	216370
#	244629
#
# Disc length: 3630 seconds
#
# Revision: 0
# Processed by: cddbd v1.5.1PL2 Copyright (c) Steve Scherf et al.
# Submitted via: EasyCDDAExtractor 8.2.3.1
#
DISCID=9b0e2c0b
DTITLE=Fred Tackett - Grand Lido Braco - Jamaica 02-02-03
DYEAR=2003
DGENRE=Blues
TTITLE0=intro
TTITLE1=In A Town Like This
TTITLE2=A Blinding faith
TTITLE3=Gold Tooth Woman
TTITLE4=Dance For patricia ->
TTITLE5=Dominic's Interlude ->
TTITLE6=A Church Falling Down
TTITLE7=Had We Known Better
TTITLE8=Honest Man
TTITLE9=Find A river
TTITLE10=Everything I Do Gone Be Funky
EXTD=
EXTT0=
EXTT1=
EXTT2=
EXTT3=
EXTT4=
EXTT5=
EXTT6=
EXTT7=
EXTT8=
EXTT9=
EXTT10=
PLAYORDER=
